<svg width="200" height="200" viewBox="0 0 200 200" fill="none" xmlns="http://www.w3.org/2000/svg">

<path d="
M 0 30
L 0 170
Q 0 200 30 200
L 170 200
Q 200 200 200 170
L 200 110
L 130 110
L 130 135
L 95 135
L 95 110
L 70 110
Q 35 110 35 75
L 35 40
L 70 40
L 70 76
L 95 76
L 95 40
L 130 46
L 130 76
L 200 76
L 200 30
Q 200 0 170 0
L 30 0
Q 0 0 0 30
Z" fill="black"/>

<path d="
M 70 50
Q 100 0 130 50
Q 160 100 130 150
Q 100 200 70 150
Q 40 100 70 50
Z" fill="pink"/>

<path d="
M 58 100
Q 58 30 100 30
Q 142 30 142 100
Q 142 170 100 170
Q 58 170 58 100
Z" fill="yellow"/>

<path d="
M 100 30
A 42 70 0 0 0 100 170
A 42 70 0 0 0 100 30
Z" fill="red"/>

<path d="
M 58 100
C 58 54 72 30 100 30
C 121 30 142 65 142 100
C 142 135 121 170 100 170
C 79 170 58 135 58 100
Z" fill="green"/>

</svg>


