<svg width="20" height="20" viewBox="0 0 20 20" fill="none" xmlns="http://www.w3.org/2000/svg">
<path d="M-7.46167e-07 2.92969
L0 17
C-5.74539e-08 18.6856 1.31439 20 2.92969 20
L17 20
C18.6856 20 20 18.6856 20 17.0703
L20 11
L13 11
L13 13.5
L9.5 13.5
L9.5 11
L7 11
C5.09262 11.1719 3.51562 9.59488 3.51562 7.65625
L3.5 4
L7 4
L7 7.65
L9.5 7.65
L9.5 4
L13 4.65
L13 7.65
L20 7.65
L20 3
C20 1.31439 18.6856 -8.16774e-07 17.0703 -7.46167e-07
L3 0
C1.31439 -5.74539e-08 -8.16774e-07 1.31439 -7.46167e-07 2.92969
Z" fill="black"/>
</svg>
